<svg xmlns="http://www.w3.org/2000/svg" viewBox="0 0 1200 800" role="img" aria-labelledby="title desc">
  <title id="title">Discovery Set editorial study</title>
  <desc id="desc">Discovery set study with lined sample vials, soft card stock, and warm studio light.</desc>
  <defs>
    <linearGradient id="bg" x1="0" y1="0" x2="1" y2="1">
      <stop offset="0%" stop-color="#e9e1d5"/>
      <stop offset="100%" stop-color="#a19281"/>
    </linearGradient>
  </defs>
  <rect width="1200" height="800" fill="url(#bg)"/>
  <rect x="88" y="110" width="1024" height="580" rx="30" fill="#fbf7ef" opacity=".38"/>
  <rect x="230" y="242" width="540" height="278" rx="22" fill="#d9d0c5" opacity=".78"/>
  <rect x="308" y="286" width="28" height="190" rx="12" fill="#f4eee4"/>
  <rect x="370" y="286" width="28" height="190" rx="12" fill="#f4eee4"/>
  <rect x="432" y="286" width="28" height="190" rx="12" fill="#f4eee4"/>
  <rect x="494" y="286" width="28" height="190" rx="12" fill="#f4eee4"/>
  <rect x="556" y="286" width="28" height="190" rx="12" fill="#f4eee4"/>
  <rect x="618" y="286" width="28" height="190" rx="12" fill="#f4eee4"/>
  <rect x="680" y="286" width="28" height="190" rx="12" fill="#f4eee4"/>
  <rect x="816" y="224" width="122" height="332" rx="20" fill="#b8ab99" opacity=".7"/>
  <ellipse cx="596" cy="622" rx="330" ry="78" fill="#74685d" opacity=".16"/>
</svg>
