<svg xmlns="http://www.w3.org/2000/svg" viewBox="0 0 1600 1200" role="img" aria-labelledby="title desc">
  <title id="title">Paper studio still life</title>
  <desc id="desc">Layered paper composition with warm daylight and restrained shadows.</desc>
  <defs>
    <linearGradient id="bg" x1="0%" y1="0%" x2="100%" y2="100%">
      <stop offset="0%" stop-color="#f7f1e8" />
      <stop offset="100%" stop-color="#e4d7c7" />
    </linearGradient>
    <linearGradient id="paper" x1="0%" y1="0%" x2="100%" y2="100%">
      <stop offset="0%" stop-color="#fcfaf6" />
      <stop offset="100%" stop-color="#efe5d8" />
    </linearGradient>
  </defs>
  <rect width="1600" height="1200" fill="url(#bg)" />
  <circle cx="1240" cy="180" r="170" fill="#efe3d0" opacity="0.85" />
  <rect x="220" y="200" width="1160" height="760" rx="36" fill="#efe5d7" opacity="0.55" />
  <g transform="rotate(-10 700 550)">
    <rect x="260" y="260" width="760" height="540" rx="20" fill="url(#paper)" />
    <rect x="340" y="340" width="760" height="540" rx="20" fill="#faf7f2" opacity="0.88" />
    <rect x="430" y="420" width="520" height="18" rx="9" fill="#c1aa8c" opacity="0.42" />
    <rect x="430" y="476" width="620" height="18" rx="9" fill="#c1aa8c" opacity="0.32" />
    <rect x="430" y="532" width="470" height="18" rx="9" fill="#c1aa8c" opacity="0.26" />
  </g>
  <path d="M1110 330c40 60 86 170 116 274 18 66 42 154 74 220" fill="none" stroke="#cfb89a" stroke-linecap="round" stroke-width="22" opacity="0.6" />
  <text x="225" y="1080" fill="#7b6750" font-family="Georgia, serif" font-size="34" letter-spacing="7">SILLAGE PAPER AND LIGHT</text>
</svg>
