<svg xmlns="http://www.w3.org/2000/svg" viewBox="0 0 64 64" role="img" aria-label="Sillage favicon">
  <rect width="64" height="64" rx="14" fill="#181613" />
  <path
    d="M42.71 20.49c-2.62-1.85-5.8-2.78-9.54-2.78-3.49 0-6.37.75-8.63 2.24-2.27 1.5-3.4 3.54-3.4 6.14 0 2.75 1.16 4.87 3.49 6.35 1.39.91 3.67 1.73 6.84 2.45 2.87.66 4.83 1.29 5.89 1.9 1.22.72 1.83 1.77 1.83 3.15 0 1.48-.63 2.64-1.89 3.49-1.26.84-3.02 1.27-5.28 1.27-2.34 0-4.49-.48-6.45-1.43-1.95-.95-3.68-2.33-5.16-4.12l-4.77 4.1c1.62 2.27 3.9 4.07 6.83 5.4 2.94 1.33 6.17 2 9.69 2 3.9 0 7.11-.84 9.64-2.53 2.53-1.68 3.79-4.08 3.79-7.18 0-2.74-1.04-4.88-3.11-6.42-1.45-1.08-3.93-1.99-7.42-2.74-3.18-.71-5.27-1.32-6.27-1.84-1.12-.57-1.68-1.44-1.68-2.61 0-1.23.58-2.22 1.74-2.99 1.16-.76 2.77-1.15 4.83-1.15 3.14 0 5.9 1.03 8.27 3.08l4.56-4.18Z"
    fill="#F6F1E8"
  />
</svg>
