<svg xmlns="http://www.w3.org/2000/svg" viewBox="0 0 96 32" role="img" aria-labelledby="codTitle">
  <title id="codTitle">COD</title>
  <rect width="96" height="32" rx="8" fill="#f3ede4"/>
  <rect x="14" y="7.5" width="18" height="12.5" rx="2.5" fill="none" stroke="#24201b" stroke-width="1.8"/>
  <path d="M14 12h18" stroke="#24201b" stroke-width="1.8"/>
  <path d="M41.8 20.9c-4.2 0-6.8-2.7-6.8-6.9s2.6-6.9 6.8-6.9c1.9 0 3.7.6 4.9 1.8l-1.5 1.8c-.8-.8-1.9-1.2-3.3-1.2-2.6 0-4.2 1.8-4.2 4.5s1.6 4.5 4.2 4.5c1.4 0 2.5-.4 3.3-1.2l1.5 1.8c-1.2 1.2-3 1.8-4.9 1.8Zm13.7 0c-4 0-6.7-2.8-6.7-6.9 0-4 2.7-6.9 6.7-6.9s6.7 2.8 6.7 6.9c0 4-2.7 6.9-6.7 6.9Zm0-2.3c2.4 0 4.1-1.8 4.1-4.5s-1.6-4.5-4.1-4.5c-2.4 0-4.1 1.8-4.1 4.5s1.7 4.5 4.1 4.5Zm8.8 2V7.4h4.7c4.4 0 7.1 2.5 7.1 6.6s-2.7 6.6-7.1 6.6Zm2.5-2.2h2c3 0 4.7-1.6 4.7-4.4s-1.7-4.4-4.7-4.4h-2Z" fill="#24201b"/>
</svg>
